<?xml version="1.0" encoding="utf-8" standalone="no"?>
<!DOCTYPE svg PUBLIC "-//W3C//DTD SVG 1.1//EN"
  "http://www.w3.org/Graphics/SVG/1.1/DTD/svg11.dtd">
<svg xmlns:xlink="http://www.w3.org/1999/xlink" width="720pt" height="475.2pt" viewBox="0 0 720 475.2" xmlns="http://www.w3.org/2000/svg" version="1.1">
 <metadata>
  <rdf:RDF xmlns:dc="http://purl.org/dc/elements/1.1/" xmlns:cc="http://creativecommons.org/ns#" xmlns:rdf="http://www.w3.org/1999/02/22-rdf-syntax-ns#">
   <cc:Work>
    <dc:type rdf:resource="http://purl.org/dc/dcmitype/StillImage"/>
    <dc:date>2025-10-24T12:32:06.429256</dc:date>
    <dc:format>image/svg+xml</dc:format>
    <dc:creator>
     <cc:Agent>
      <dc:title>Matplotlib v3.10.7, https://matplotlib.org/</dc:title>
     </cc:Agent>
    </dc:creator>
   </cc:Work>
  </rdf:RDF>
 </metadata>
 <defs>
  <style type="text/css">*{stroke-linejoin: round; stroke-linecap: butt}</style>
 </defs>
 <g id="figure_1">
  <g id="patch_1">
   <path d="M 0 475.2 
L 720 475.2 
L 720 0 
L 0 0 
z
" style="fill: #ffffff"/>
  </g>
  <g id="axes_1">
   <g id="patch_2">
    <path d="M 129.71 433.24 
L 709.2 433.24 
L 709.2 26.88 
L 129.71 26.88 
z
" style="fill: #ffffff"/>
   </g>
   <g id="patch_3">
    <path d="M 419.455 30.005846 
L 419.455 30.005846 
L 419.455 38.341436 
L 419.455 38.341436 
z
" clip-path="url(#p05cbda2933)" style="fill: #72b6a1"/>
   </g>
   <g id="patch_4">
    <path d="M 419.455 61.264308 
L 419.455 61.264308 
L 419.455 69.599897 
L 419.455 69.599897 
z
" clip-path="url(#p05cbda2933)" style="fill: #72b6a1"/>
   </g>
   <g id="patch_5">
    <path d="M 419.455 92.522769 
L 419.455 92.522769 
L 419.455 100.858359 
L 419.455 100.858359 
z
" clip-path="url(#p05cbda2933)" style="fill: #72b6a1"/>
   </g>
   <g id="patch_6">
    <path d="M 419.455 123.781231 
L 419.455 123.781231 
L 419.455 132.116821 
L 419.455 132.116821 
z
" clip-path="url(#p05cbda2933)" style="fill: #72b6a1"/>
   </g>
   <g id="patch_7">
    <path d="M 419.455 155.039692 
L 419.455 155.039692 
L 419.455 163.375282 
L 419.455 163.375282 
z
" clip-path="url(#p05cbda2933)" style="fill: #72b6a1"/>
   </g>
   <g id="patch_8">
    <path d="M 419.455 186.298154 
L 419.455 186.298154 
L 419.455 194.633744 
L 419.455 194.633744 
z
" clip-path="url(#p05cbda2933)" style="fill: #72b6a1"/>
   </g>
   <g id="patch_9">
    <path d="M 419.455 217.556615 
L 419.455 217.556615 
L 419.455 225.892205 
L 419.455 225.892205 
z
" clip-path="url(#p05cbda2933)" style="fill: #72b6a1"/>
   </g>
   <g id="patch_10">
    <path d="M 419.455 248.815077 
L 419.455 248.815077 
L 419.455 257.150667 
L 419.455 257.150667 
z
" clip-path="url(#p05cbda2933)" style="fill: #72b6a1"/>
   </g>
   <g id="patch_11">
    <path d="M 419.455 280.073538 
L 419.455 280.073538 
L 419.455 288.409128 
L 419.455 288.409128 
z
" clip-path="url(#p05cbda2933)" style="fill: #72b6a1"/>
   </g>
   <g id="patch_12">
    <path d="M 419.455 311.332 
L 419.455 311.332 
L 419.455 319.66759 
L 419.455 319.66759 
z
" clip-path="url(#p05cbda2933)" style="fill: #72b6a1"/>
   </g>
   <g id="patch_13">
    <path d="M 419.455 38.341436 
L 419.455 38.341436 
L 419.455 46.677026 
L 419.455 46.677026 
z
" clip-path="url(#p05cbda2933)" style="fill: #e99675"/>
   </g>
   <g id="patch_14">
    <path d="M 419.455 100.858359 
L 419.455 100.858359 
L 419.455 109.193949 
L 419.455 109.193949 
z
" clip-path="url(#p05cbda2933)" style="fill: #e99675"/>
   </g>
   <g id="patch_15">
    <path d="M 419.455 163.375282 
L 419.455 163.375282 
L 419.455 171.710872 
L 419.455 171.710872 
z
" clip-path="url(#p05cbda2933)" style="fill: #e99675"/>
   </g>
   <g id="patch_16">
    <path d="M 419.455 225.892205 
L 419.455 225.892205 
L 419.455 234.227795 
L 419.455 234.227795 
z
" clip-path="url(#p05cbda2933)" style="fill: #e99675"/>
   </g>
   <g id="patch_17">
    <path d="M 419.455 319.66759 
L 419.455 319.66759 
L 419.455 328.003179 
L 419.455 328.003179 
z
" clip-path="url(#p05cbda2933)" style="fill: #e99675"/>
   </g>
   <g id="patch_18">
    <path d="M 419.455 350.926051 
L 419.455 350.926051 
L 419.455 359.261641 
L 419.455 359.261641 
z
" clip-path="url(#p05cbda2933)" style="fill: #e99675"/>
   </g>
   <g id="patch_19">
    <path d="M 419.455 382.184513 
L 419.455 382.184513 
L 419.455 390.520103 
L 419.455 390.520103 
z
" clip-path="url(#p05cbda2933)" style="fill: #e99675"/>
   </g>
   <g id="patch_20">
    <path d="M 419.455 413.442974 
L 419.455 413.442974 
L 419.455 421.778564 
L 419.455 421.778564 
z
" clip-path="url(#p05cbda2933)" style="fill: #e99675"/>
   </g>
   <g id="patch_21">
    <path d="M 419.455 46.677026 
L 419.455 46.677026 
L 419.455 55.012615 
L 419.455 55.012615 
z
" clip-path="url(#p05cbda2933)" style="fill: #95a3c3"/>
   </g>
   <g id="patch_22">
    <path d="M 419.455 109.193949 
L 419.455 109.193949 
L 419.455 117.529538 
L 419.455 117.529538 
z
" clip-path="url(#p05cbda2933)" style="fill: #95a3c3"/>
   </g>
   <g id="patch_23">
    <path d="M 419.455 171.710872 
L 419.455 171.710872 
L 419.455 180.046462 
L 419.455 180.046462 
z
" clip-path="url(#p05cbda2933)" style="fill: #95a3c3"/>
   </g>
   <g id="patch_24">
    <path d="M 419.455 234.227795 
L 419.455 234.227795 
L 419.455 242.563385 
L 419.455 242.563385 
z
" clip-path="url(#p05cbda2933)" style="fill: #95a3c3"/>
   </g>
   <g id="patch_25">
    <path d="M 419.455 328.003179 
L 419.455 328.003179 
L 419.455 336.338769 
L 419.455 336.338769 
z
" clip-path="url(#p05cbda2933)" style="fill: #95a3c3"/>
   </g>
   <g id="patch_26">
    <path d="M 419.455 390.520103 
L 419.455 390.520103 
L 419.455 398.855692 
L 419.455 398.855692 
z
" clip-path="url(#p05cbda2933)" style="fill: #95a3c3"/>
   </g>
   <g id="patch_27">
    <path d="M 419.455 421.778564 
L 419.455 421.778564 
L 419.455 430.114154 
L 419.455 430.114154 
z
" clip-path="url(#p05cbda2933)" style="fill: #95a3c3"/>
   </g>
   <g id="patch_28">
    <path d="M 419.455 42.509231 
L 419.455 42.509231 
L 419.455 42.509231 
L 419.455 42.509231 
z
" clip-path="url(#p05cbda2933)" style="fill: #72b6a1"/>
   </g>
   <g id="patch_29">
    <path d="M 419.455 42.509231 
L 419.455 42.509231 
L 419.455 42.509231 
L 419.455 42.509231 
z
" clip-path="url(#p05cbda2933)" style="fill: #e99675"/>
   </g>
   <g id="patch_30">
    <path d="M 419.455 42.509231 
L 419.455 42.509231 
L 419.455 42.509231 
L 419.455 42.509231 
z
" clip-path="url(#p05cbda2933)" style="fill: #95a3c3"/>
   </g>
   <g id="matplotlib.axis_1">
    <g id="xtick_1">
     <g id="line2d_1">
      <defs>
       <path id="m2670668740" d="M 0 0 
L 0 3.5 
" style="stroke: #000000; stroke-width: 0.8"/>
      </defs>
      <g>
       <use xlink:href="#m2670668740" x="208.731364" y="433.24" style="stroke: #000000; stroke-width: 0.8"/>
      </g>
     </g>
     <g id="text_1">
      <!-- −0.04 -->
      <g transform="translate(193.408707 447.838437) scale(0.1 -0.1)">
       <defs>
        <path id="DejaVuSans-2212" d="M 678 2272 
L 4684 2272 
L 4684 1741 
L 678 1741 
L 678 2272 
z
" transform="scale(0.015625)"/>
        <path id="DejaVuSans-30" d="M 2034 4250 
Q 1547 4250 1301 3770 
Q 1056 3291 1056 2328 
Q 1056 1369 1301 889 
Q 1547 409 2034 409 
Q 2525 409 2770 889 
Q 3016 1369 3016 2328 
Q 3016 3291 2770 3770 
Q 2525 4250 2034 4250 
z
M 2034 4750 
Q 2819 4750 3233 4129 
Q 3647 3509 3647 2328 
Q 3647 1150 3233 529 
Q 2819 -91 2034 -91 
Q 1250 -91 836 529 
Q 422 1150 422 2328 
Q 422 3509 836 4129 
Q 1250 4750 2034 4750 
z
" transform="scale(0.015625)"/>
        <path id="DejaVuSans-2e" d="M 684 794 
L 1344 794 
L 1344 0 
L 684 0 
L 684 794 
z
" transform="scale(0.015625)"/>
        <path id="DejaVuSans-34" d="M 2419 4116 
L 825 1625 
L 2419 1625 
L 2419 4116 
z
M 2253 4666 
L 3047 4666 
L 3047 1625 
L 3713 1625 
L 3713 1100 
L 3047 1100 
L 3047 0 
L 2419 0 
L 2419 1100 
L 313 1100 
L 313 1709 
L 2253 4666 
z
" transform="scale(0.015625)"/>
       </defs>
       <use xlink:href="#DejaVuSans-2212"/>
       <use xlink:href="#DejaVuSans-30" transform="translate(83.789062 0)"/>
       <use xlink:href="#DejaVuSans-2e" transform="translate(147.412109 0)"/>
       <use xlink:href="#DejaVuSans-30" transform="translate(179.199219 0)"/>
       <use xlink:href="#DejaVuSans-34" transform="translate(242.822266 0)"/>
      </g>
     </g>
    </g>
    <g id="xtick_2">
     <g id="line2d_2">
      <g>
       <use xlink:href="#m2670668740" x="314.093182" y="433.24" style="stroke: #000000; stroke-width: 0.8"/>
      </g>
     </g>
     <g id="text_2">
      <!-- −0.02 -->
      <g transform="translate(298.770526 447.838437) scale(0.1 -0.1)">
       <defs>
        <path id="DejaVuSans-32" d="M 1228 531 
L 3431 531 
L 3431 0 
L 469 0 
L 469 531 
Q 828 903 1448 1529 
Q 2069 2156 2228 2338 
Q 2531 2678 2651 2914 
Q 2772 3150 2772 3378 
Q 2772 3750 2511 3984 
Q 2250 4219 1831 4219 
Q 1534 4219 1204 4116 
Q 875 4013 500 3803 
L 500 4441 
Q 881 4594 1212 4672 
Q 1544 4750 1819 4750 
Q 2544 4750 2975 4387 
Q 3406 4025 3406 3419 
Q 3406 3131 3298 2873 
Q 3191 2616 2906 2266 
Q 2828 2175 2409 1742 
Q 1991 1309 1228 531 
z
" transform="scale(0.015625)"/>
       </defs>
       <use xlink:href="#DejaVuSans-2212"/>
       <use xlink:href="#DejaVuSans-30" transform="translate(83.789062 0)"/>
       <use xlink:href="#DejaVuSans-2e" transform="translate(147.412109 0)"/>
       <use xlink:href="#DejaVuSans-30" transform="translate(179.199219 0)"/>
       <use xlink:href="#DejaVuSans-32" transform="translate(242.822266 0)"/>
      </g>
     </g>
    </g>
    <g id="xtick_3">
     <g id="line2d_3">
      <g>
       <use xlink:href="#m2670668740" x="419.455" y="433.24" style="stroke: #000000; stroke-width: 0.8"/>
      </g>
     </g>
     <g id="text_3">
      <!-- 0.00 -->
      <g transform="translate(408.322188 447.838437) scale(0.1 -0.1)">
       <use xlink:href="#DejaVuSans-30"/>
       <use xlink:href="#DejaVuSans-2e" transform="translate(63.623047 0)"/>
       <use xlink:href="#DejaVuSans-30" transform="translate(95.410156 0)"/>
       <use xlink:href="#DejaVuSans-30" transform="translate(159.033203 0)"/>
      </g>
     </g>
    </g>
    <g id="xtick_4">
     <g id="line2d_4">
      <g>
       <use xlink:href="#m2670668740" x="524.816818" y="433.24" style="stroke: #000000; stroke-width: 0.8"/>
      </g>
     </g>
     <g id="text_4">
      <!-- 0.02 -->
      <g transform="translate(513.684006 447.838437) scale(0.1 -0.1)">
       <use xlink:href="#DejaVuSans-30"/>
       <use xlink:href="#DejaVuSans-2e" transform="translate(63.623047 0)"/>
       <use xlink:href="#DejaVuSans-30" transform="translate(95.410156 0)"/>
       <use xlink:href="#DejaVuSans-32" transform="translate(159.033203 0)"/>
      </g>
     </g>
    </g>
    <g id="xtick_5">
     <g id="line2d_5">
      <g>
       <use xlink:href="#m2670668740" x="630.178636" y="433.24" style="stroke: #000000; stroke-width: 0.8"/>
      </g>
     </g>
     <g id="text_5">
      <!-- 0.04 -->
      <g transform="translate(619.045824 447.838437) scale(0.1 -0.1)">
       <use xlink:href="#DejaVuSans-30"/>
       <use xlink:href="#DejaVuSans-2e" transform="translate(63.623047 0)"/>
       <use xlink:href="#DejaVuSans-30" transform="translate(95.410156 0)"/>
       <use xlink:href="#DejaVuSans-34" transform="translate(159.033203 0)"/>
      </g>
     </g>
    </g>
    <g id="text_6">
     <!-- Anomaly count -->
     <g transform="translate(381.828438 461.516562) scale(0.1 -0.1)">
      <defs>
       <path id="DejaVuSans-41" d="M 2188 4044 
L 1331 1722 
L 3047 1722 
L 2188 4044 
z
M 1831 4666 
L 2547 4666 
L 4325 0 
L 3669 0 
L 3244 1197 
L 1141 1197 
L 716 0 
L 50 0 
L 1831 4666 
z
" transform="scale(0.015625)"/>
       <path id="DejaVuSans-6e" d="M 3513 2113 
L 3513 0 
L 2938 0 
L 2938 2094 
Q 2938 2591 2744 2837 
Q 2550 3084 2163 3084 
Q 1697 3084 1428 2787 
Q 1159 2491 1159 1978 
L 1159 0 
L 581 0 
L 581 3500 
L 1159 3500 
L 1159 2956 
Q 1366 3272 1645 3428 
Q 1925 3584 2291 3584 
Q 2894 3584 3203 3211 
Q 3513 2838 3513 2113 
z
" transform="scale(0.015625)"/>
       <path id="DejaVuSans-6f" d="M 1959 3097 
Q 1497 3097 1228 2736 
Q 959 2375 959 1747 
Q 959 1119 1226 758 
Q 1494 397 1959 397 
Q 2419 397 2687 759 
Q 2956 1122 2956 1747 
Q 2956 2369 2687 2733 
Q 2419 3097 1959 3097 
z
M 1959 3584 
Q 2709 3584 3137 3096 
Q 3566 2609 3566 1747 
Q 3566 888 3137 398 
Q 2709 -91 1959 -91 
Q 1206 -91 779 398 
Q 353 888 353 1747 
Q 353 2609 779 3096 
Q 1206 3584 1959 3584 
z
" transform="scale(0.015625)"/>
       <path id="DejaVuSans-6d" d="M 3328 2828 
Q 3544 3216 3844 3400 
Q 4144 3584 4550 3584 
Q 5097 3584 5394 3201 
Q 5691 2819 5691 2113 
L 5691 0 
L 5113 0 
L 5113 2094 
Q 5113 2597 4934 2840 
Q 4756 3084 4391 3084 
Q 3944 3084 3684 2787 
Q 3425 2491 3425 1978 
L 3425 0 
L 2847 0 
L 2847 2094 
Q 2847 2600 2669 2842 
Q 2491 3084 2119 3084 
Q 1678 3084 1418 2786 
Q 1159 2488 1159 1978 
L 1159 0 
L 581 0 
L 581 3500 
L 1159 3500 
L 1159 2956 
Q 1356 3278 1631 3431 
Q 1906 3584 2284 3584 
Q 2666 3584 2933 3390 
Q 3200 3197 3328 2828 
z
" transform="scale(0.015625)"/>
       <path id="DejaVuSans-61" d="M 2194 1759 
Q 1497 1759 1228 1600 
Q 959 1441 959 1056 
Q 959 750 1161 570 
Q 1363 391 1709 391 
Q 2188 391 2477 730 
Q 2766 1069 2766 1631 
L 2766 1759 
L 2194 1759 
z
M 3341 1997 
L 3341 0 
L 2766 0 
L 2766 531 
Q 2569 213 2275 61 
Q 1981 -91 1556 -91 
Q 1019 -91 701 211 
Q 384 513 384 1019 
Q 384 1609 779 1909 
Q 1175 2209 1959 2209 
L 2766 2209 
L 2766 2266 
Q 2766 2663 2505 2880 
Q 2244 3097 1772 3097 
Q 1472 3097 1187 3025 
Q 903 2953 641 2809 
L 641 3341 
Q 956 3463 1253 3523 
Q 1550 3584 1831 3584 
Q 2591 3584 2966 3190 
Q 3341 2797 3341 1997 
z
" transform="scale(0.015625)"/>
       <path id="DejaVuSans-6c" d="M 603 4863 
L 1178 4863 
L 1178 0 
L 603 0 
L 603 4863 
z
" transform="scale(0.015625)"/>
       <path id="DejaVuSans-79" d="M 2059 -325 
Q 1816 -950 1584 -1140 
Q 1353 -1331 966 -1331 
L 506 -1331 
L 506 -850 
L 844 -850 
Q 1081 -850 1212 -737 
Q 1344 -625 1503 -206 
L 1606 56 
L 191 3500 
L 800 3500 
L 1894 763 
L 2988 3500 
L 3597 3500 
L 2059 -325 
z
" transform="scale(0.015625)"/>
       <path id="DejaVuSans-20" transform="scale(0.015625)"/>
       <path id="DejaVuSans-63" d="M 3122 3366 
L 3122 2828 
Q 2878 2963 2633 3030 
Q 2388 3097 2138 3097 
Q 1578 3097 1268 2742 
Q 959 2388 959 1747 
Q 959 1106 1268 751 
Q 1578 397 2138 397 
Q 2388 397 2633 464 
Q 2878 531 3122 666 
L 3122 134 
Q 2881 22 2623 -34 
Q 2366 -91 2075 -91 
Q 1284 -91 818 406 
Q 353 903 353 1747 
Q 353 2603 823 3093 
Q 1294 3584 2113 3584 
Q 2378 3584 2631 3529 
Q 2884 3475 3122 3366 
z
" transform="scale(0.015625)"/>
       <path id="DejaVuSans-75" d="M 544 1381 
L 544 3500 
L 1119 3500 
L 1119 1403 
Q 1119 906 1312 657 
Q 1506 409 1894 409 
Q 2359 409 2629 706 
Q 2900 1003 2900 1516 
L 2900 3500 
L 3475 3500 
L 3475 0 
L 2900 0 
L 2900 538 
Q 2691 219 2414 64 
Q 2138 -91 1772 -91 
Q 1169 -91 856 284 
Q 544 659 544 1381 
z
M 1991 3584 
L 1991 3584 
z
" transform="scale(0.015625)"/>
       <path id="DejaVuSans-74" d="M 1172 4494 
L 1172 3500 
L 2356 3500 
L 2356 3053 
L 1172 3053 
L 1172 1153 
Q 1172 725 1289 603 
Q 1406 481 1766 481 
L 2356 481 
L 2356 0 
L 1766 0 
Q 1100 0 847 248 
Q 594 497 594 1153 
L 594 3053 
L 172 3053 
L 172 3500 
L 594 3500 
L 594 4494 
L 1172 4494 
z
" transform="scale(0.015625)"/>
      </defs>
      <use xlink:href="#DejaVuSans-41"/>
      <use xlink:href="#DejaVuSans-6e" transform="translate(68.408203 0)"/>
      <use xlink:href="#DejaVuSans-6f" transform="translate(131.787109 0)"/>
      <use xlink:href="#DejaVuSans-6d" transform="translate(192.96875 0)"/>
      <use xlink:href="#DejaVuSans-61" transform="translate(290.380859 0)"/>
      <use xlink:href="#DejaVuSans-6c" transform="translate(351.660156 0)"/>
      <use xlink:href="#DejaVuSans-79" transform="translate(379.443359 0)"/>
      <use xlink:href="#DejaVuSans-20" transform="translate(438.623047 0)"/>
      <use xlink:href="#DejaVuSans-63" transform="translate(470.410156 0)"/>
      <use xlink:href="#DejaVuSans-6f" transform="translate(525.390625 0)"/>
      <use xlink:href="#DejaVuSans-75" transform="translate(586.572266 0)"/>
      <use xlink:href="#DejaVuSans-6e" transform="translate(649.951172 0)"/>
      <use xlink:href="#DejaVuSans-74" transform="translate(713.330078 0)"/>
     </g>
    </g>
   </g>
   <g id="matplotlib.axis_2">
    <g id="ytick_1">
     <g id="line2d_6">
      <defs>
       <path id="m12ac79c7dd" d="M 0 0 
L -3.5 0 
" style="stroke: #000000; stroke-width: 0.8"/>
      </defs>
      <g>
       <use xlink:href="#m12ac79c7dd" x="129.71" y="42.509231" style="stroke: #000000; stroke-width: 0.8"/>
      </g>
     </g>
     <g id="text_7">
      <!-- asin -->
      <g transform="translate(102.256875 46.30845) scale(0.1 -0.1)">
       <defs>
        <path id="DejaVuSans-73" d="M 2834 3397 
L 2834 2853 
Q 2591 2978 2328 3040 
Q 2066 3103 1784 3103 
Q 1356 3103 1142 2972 
Q 928 2841 928 2578 
Q 928 2378 1081 2264 
Q 1234 2150 1697 2047 
L 1894 2003 
Q 2506 1872 2764 1633 
Q 3022 1394 3022 966 
Q 3022 478 2636 193 
Q 2250 -91 1575 -91 
Q 1294 -91 989 -36 
Q 684 19 347 128 
L 347 722 
Q 666 556 975 473 
Q 1284 391 1588 391 
Q 1994 391 2212 530 
Q 2431 669 2431 922 
Q 2431 1156 2273 1281 
Q 2116 1406 1581 1522 
L 1381 1569 
Q 847 1681 609 1914 
Q 372 2147 372 2553 
Q 372 3047 722 3315 
Q 1072 3584 1716 3584 
Q 2034 3584 2315 3537 
Q 2597 3491 2834 3397 
z
" transform="scale(0.015625)"/>
        <path id="DejaVuSans-69" d="M 603 3500 
L 1178 3500 
L 1178 0 
L 603 0 
L 603 3500 
z
M 603 4863 
L 1178 4863 
L 1178 4134 
L 603 4134 
L 603 4863 
z
" transform="scale(0.015625)"/>
       </defs>
       <use xlink:href="#DejaVuSans-61"/>
       <use xlink:href="#DejaVuSans-73" transform="translate(61.279297 0)"/>
       <use xlink:href="#DejaVuSans-69" transform="translate(113.378906 0)"/>
       <use xlink:href="#DejaVuSans-6e" transform="translate(141.162109 0)"/>
      </g>
     </g>
    </g>
    <g id="ytick_2">
     <g id="line2d_7">
      <g>
       <use xlink:href="#m12ac79c7dd" x="129.71" y="73.767692" style="stroke: #000000; stroke-width: 0.8"/>
      </g>
     </g>
     <g id="text_8">
      <!-- average_rating -->
      <g transform="translate(47.145938 77.566911) scale(0.1 -0.1)">
       <defs>
        <path id="DejaVuSans-76" d="M 191 3500 
L 800 3500 
L 1894 563 
L 2988 3500 
L 3597 3500 
L 2284 0 
L 1503 0 
L 191 3500 
z
" transform="scale(0.015625)"/>
        <path id="DejaVuSans-65" d="M 3597 1894 
L 3597 1613 
L 953 1613 
Q 991 1019 1311 708 
Q 1631 397 2203 397 
Q 2534 397 2845 478 
Q 3156 559 3463 722 
L 3463 178 
Q 3153 47 2828 -22 
Q 2503 -91 2169 -91 
Q 1331 -91 842 396 
Q 353 884 353 1716 
Q 353 2575 817 3079 
Q 1281 3584 2069 3584 
Q 2775 3584 3186 3129 
Q 3597 2675 3597 1894 
z
M 3022 2063 
Q 3016 2534 2758 2815 
Q 2500 3097 2075 3097 
Q 1594 3097 1305 2825 
Q 1016 2553 972 2059 
L 3022 2063 
z
" transform="scale(0.015625)"/>
        <path id="DejaVuSans-72" d="M 2631 2963 
Q 2534 3019 2420 3045 
Q 2306 3072 2169 3072 
Q 1681 3072 1420 2755 
Q 1159 2438 1159 1844 
L 1159 0 
L 581 0 
L 581 3500 
L 1159 3500 
L 1159 2956 
Q 1341 3275 1631 3429 
Q 1922 3584 2338 3584 
Q 2397 3584 2469 3576 
Q 2541 3569 2628 3553 
L 2631 2963 
z
" transform="scale(0.015625)"/>
        <path id="DejaVuSans-67" d="M 2906 1791 
Q 2906 2416 2648 2759 
Q 2391 3103 1925 3103 
Q 1463 3103 1205 2759 
Q 947 2416 947 1791 
Q 947 1169 1205 825 
Q 1463 481 1925 481 
Q 2391 481 2648 825 
Q 2906 1169 2906 1791 
z
M 3481 434 
Q 3481 -459 3084 -895 
Q 2688 -1331 1869 -1331 
Q 1566 -1331 1297 -1286 
Q 1028 -1241 775 -1147 
L 775 -588 
Q 1028 -725 1275 -790 
Q 1522 -856 1778 -856 
Q 2344 -856 2625 -561 
Q 2906 -266 2906 331 
L 2906 616 
Q 2728 306 2450 153 
Q 2172 0 1784 0 
Q 1141 0 747 490 
Q 353 981 353 1791 
Q 353 2603 747 3093 
Q 1141 3584 1784 3584 
Q 2172 3584 2450 3431 
Q 2728 3278 2906 2969 
L 2906 3500 
L 3481 3500 
L 3481 434 
z
" transform="scale(0.015625)"/>
        <path id="DejaVuSans-5f" d="M 3263 -1063 
L 3263 -1509 
L -63 -1509 
L -63 -1063 
L 3263 -1063 
z
" transform="scale(0.015625)"/>
       </defs>
       <use xlink:href="#DejaVuSans-61"/>
       <use xlink:href="#DejaVuSans-76" transform="translate(61.279297 0)"/>
       <use xlink:href="#DejaVuSans-65" transform="translate(120.458984 0)"/>
       <use xlink:href="#DejaVuSans-72" transform="translate(181.982422 0)"/>
       <use xlink:href="#DejaVuSans-61" transform="translate(223.095703 0)"/>
       <use xlink:href="#DejaVuSans-67" transform="translate(284.375 0)"/>
       <use xlink:href="#DejaVuSans-65" transform="translate(347.851562 0)"/>
       <use xlink:href="#DejaVuSans-5f" transform="translate(409.375 0)"/>
       <use xlink:href="#DejaVuSans-72" transform="translate(459.375 0)"/>
       <use xlink:href="#DejaVuSans-61" transform="translate(500.488281 0)"/>
       <use xlink:href="#DejaVuSans-74" transform="translate(561.767578 0)"/>
       <use xlink:href="#DejaVuSans-69" transform="translate(600.976562 0)"/>
       <use xlink:href="#DejaVuSans-6e" transform="translate(628.759766 0)"/>
       <use xlink:href="#DejaVuSans-67" transform="translate(692.138672 0)"/>
      </g>
     </g>
    </g>
    <g id="ytick_3">
     <g id="line2d_8">
      <g>
       <use xlink:href="#m12ac79c7dd" x="129.71" y="105.026154" style="stroke: #000000; stroke-width: 0.8"/>
      </g>
     </g>
     <g id="text_9">
      <!-- brand -->
      <g transform="translate(93.436563 108.825373) scale(0.1 -0.1)">
       <defs>
        <path id="DejaVuSans-62" d="M 3116 1747 
Q 3116 2381 2855 2742 
Q 2594 3103 2138 3103 
Q 1681 3103 1420 2742 
Q 1159 2381 1159 1747 
Q 1159 1113 1420 752 
Q 1681 391 2138 391 
Q 2594 391 2855 752 
Q 3116 1113 3116 1747 
z
M 1159 2969 
Q 1341 3281 1617 3432 
Q 1894 3584 2278 3584 
Q 2916 3584 3314 3078 
Q 3713 2572 3713 1747 
Q 3713 922 3314 415 
Q 2916 -91 2278 -91 
Q 1894 -91 1617 61 
Q 1341 213 1159 525 
L 1159 0 
L 581 0 
L 581 4863 
L 1159 4863 
L 1159 2969 
z
" transform="scale(0.015625)"/>
        <path id="DejaVuSans-64" d="M 2906 2969 
L 2906 4863 
L 3481 4863 
L 3481 0 
L 2906 0 
L 2906 525 
Q 2725 213 2448 61 
Q 2172 -91 1784 -91 
Q 1150 -91 751 415 
Q 353 922 353 1747 
Q 353 2572 751 3078 
Q 1150 3584 1784 3584 
Q 2172 3584 2448 3432 
Q 2725 3281 2906 2969 
z
M 947 1747 
Q 947 1113 1208 752 
Q 1469 391 1925 391 
Q 2381 391 2643 752 
Q 2906 1113 2906 1747 
Q 2906 2381 2643 2742 
Q 2381 3103 1925 3103 
Q 1469 3103 1208 2742 
Q 947 2381 947 1747 
z
" transform="scale(0.015625)"/>
       </defs>
       <use xlink:href="#DejaVuSans-62"/>
       <use xlink:href="#DejaVuSans-72" transform="translate(63.476562 0)"/>
       <use xlink:href="#DejaVuSans-61" transform="translate(104.589844 0)"/>
       <use xlink:href="#DejaVuSans-6e" transform="translate(165.869141 0)"/>
       <use xlink:href="#DejaVuSans-64" transform="translate(229.248047 0)"/>
      </g>
     </g>
    </g>
    <g id="ytick_4">
     <g id="line2d_9">
      <g>
       <use xlink:href="#m12ac79c7dd" x="129.71" y="136.284615" style="stroke: #000000; stroke-width: 0.8"/>
      </g>
     </g>
     <g id="text_10">
      <!-- brand_source -->
      <g transform="translate(55.233438 140.083834) scale(0.1 -0.1)">
       <use xlink:href="#DejaVuSans-62"/>
       <use xlink:href="#DejaVuSans-72" transform="translate(63.476562 0)"/>
       <use xlink:href="#DejaVuSans-61" transform="translate(104.589844 0)"/>
       <use xlink:href="#DejaVuSans-6e" transform="translate(165.869141 0)"/>
       <use xlink:href="#DejaVuSans-64" transform="translate(229.248047 0)"/>
       <use xlink:href="#DejaVuSans-5f" transform="translate(292.724609 0)"/>
       <use xlink:href="#DejaVuSans-73" transform="translate(342.724609 0)"/>
       <use xlink:href="#DejaVuSans-6f" transform="translate(394.824219 0)"/>
       <use xlink:href="#DejaVuSans-75" transform="translate(456.005859 0)"/>
       <use xlink:href="#DejaVuSans-72" transform="translate(519.384766 0)"/>
       <use xlink:href="#DejaVuSans-63" transform="translate(558.248047 0)"/>
       <use xlink:href="#DejaVuSans-65" transform="translate(613.228516 0)"/>
      </g>
     </g>
    </g>
    <g id="ytick_5">
     <g id="line2d_10">
      <g>
       <use xlink:href="#m12ac79c7dd" x="129.71" y="167.543077" style="stroke: #000000; stroke-width: 0.8"/>
      </g>
     </g>
     <g id="text_11">
      <!-- category -->
      <g transform="translate(78.513125 171.342296) scale(0.1 -0.1)">
       <use xlink:href="#DejaVuSans-63"/>
       <use xlink:href="#DejaVuSans-61" transform="translate(54.980469 0)"/>
       <use xlink:href="#DejaVuSans-74" transform="translate(116.259766 0)"/>
       <use xlink:href="#DejaVuSans-65" transform="translate(155.46875 0)"/>
       <use xlink:href="#DejaVuSans-67" transform="translate(216.992188 0)"/>
       <use xlink:href="#DejaVuSans-6f" transform="translate(280.46875 0)"/>
       <use xlink:href="#DejaVuSans-72" transform="translate(341.650391 0)"/>
       <use xlink:href="#DejaVuSans-79" transform="translate(382.763672 0)"/>
      </g>
     </g>
    </g>
    <g id="ytick_6">
     <g id="line2d_11">
      <g>
       <use xlink:href="#m12ac79c7dd" x="129.71" y="198.801538" style="stroke: #000000; stroke-width: 0.8"/>
      </g>
     </g>
     <g id="text_12">
      <!-- category_source -->
      <g transform="translate(40.31 202.461695) scale(0.1 -0.1)">
       <use xlink:href="#DejaVuSans-63"/>
       <use xlink:href="#DejaVuSans-61" transform="translate(54.980469 0)"/>
       <use xlink:href="#DejaVuSans-74" transform="translate(116.259766 0)"/>
       <use xlink:href="#DejaVuSans-65" transform="translate(155.46875 0)"/>
       <use xlink:href="#DejaVuSans-67" transform="translate(216.992188 0)"/>
       <use xlink:href="#DejaVuSans-6f" transform="translate(280.46875 0)"/>
       <use xlink:href="#DejaVuSans-72" transform="translate(341.650391 0)"/>
       <use xlink:href="#DejaVuSans-79" transform="translate(382.763672 0)"/>
       <use xlink:href="#DejaVuSans-5f" transform="translate(441.943359 0)"/>
       <use xlink:href="#DejaVuSans-73" transform="translate(491.943359 0)"/>
       <use xlink:href="#DejaVuSans-6f" transform="translate(544.042969 0)"/>
       <use xlink:href="#DejaVuSans-75" transform="translate(605.224609 0)"/>
       <use xlink:href="#DejaVuSans-72" transform="translate(668.603516 0)"/>
       <use xlink:href="#DejaVuSans-63" transform="translate(707.466797 0)"/>
       <use xlink:href="#DejaVuSans-65" transform="translate(762.447266 0)"/>
      </g>
     </g>
    </g>
    <g id="ytick_7">
     <g id="line2d_12">
      <g>
       <use xlink:href="#m12ac79c7dd" x="129.71" y="230.06" style="stroke: #000000; stroke-width: 0.8"/>
      </g>
     </g>
     <g id="text_13">
      <!-- price -->
      <g transform="translate(97.820938 233.859219) scale(0.1 -0.1)">
       <defs>
        <path id="DejaVuSans-70" d="M 1159 525 
L 1159 -1331 
L 581 -1331 
L 581 3500 
L 1159 3500 
L 1159 2969 
Q 1341 3281 1617 3432 
Q 1894 3584 2278 3584 
Q 2916 3584 3314 3078 
Q 3713 2572 3713 1747 
Q 3713 922 3314 415 
Q 2916 -91 2278 -91 
Q 1894 -91 1617 61 
Q 1341 213 1159 525 
z
M 3116 1747 
Q 3116 2381 2855 2742 
Q 2594 3103 2138 3103 
Q 1681 3103 1420 2742 
Q 1159 2381 1159 1747 
Q 1159 1113 1420 752 
Q 1681 391 2138 391 
Q 2594 391 2855 752 
Q 3116 1113 3116 1747 
z
" transform="scale(0.015625)"/>
       </defs>
       <use xlink:href="#DejaVuSans-70"/>
       <use xlink:href="#DejaVuSans-72" transform="translate(63.476562 0)"/>
       <use xlink:href="#DejaVuSans-69" transform="translate(104.589844 0)"/>
       <use xlink:href="#DejaVuSans-63" transform="translate(132.373047 0)"/>
       <use xlink:href="#DejaVuSans-65" transform="translate(187.353516 0)"/>
      </g>
     </g>
    </g>
    <g id="ytick_8">
     <g id="line2d_13">
      <g>
       <use xlink:href="#m12ac79c7dd" x="129.71" y="261.318462" style="stroke: #000000; stroke-width: 0.8"/>
      </g>
     </g>
     <g id="text_14">
      <!-- price_source -->
      <g transform="translate(59.617813 265.11768) scale(0.1 -0.1)">
       <use xlink:href="#DejaVuSans-70"/>
       <use xlink:href="#DejaVuSans-72" transform="translate(63.476562 0)"/>
       <use xlink:href="#DejaVuSans-69" transform="translate(104.589844 0)"/>
       <use xlink:href="#DejaVuSans-63" transform="translate(132.373047 0)"/>
       <use xlink:href="#DejaVuSans-65" transform="translate(187.353516 0)"/>
       <use xlink:href="#DejaVuSans-5f" transform="translate(248.876953 0)"/>
       <use xlink:href="#DejaVuSans-73" transform="translate(298.876953 0)"/>
       <use xlink:href="#DejaVuSans-6f" transform="translate(350.976562 0)"/>
       <use xlink:href="#DejaVuSans-75" transform="translate(412.158203 0)"/>
       <use xlink:href="#DejaVuSans-72" transform="translate(475.537109 0)"/>
       <use xlink:href="#DejaVuSans-63" transform="translate(514.400391 0)"/>
       <use xlink:href="#DejaVuSans-65" transform="translate(569.380859 0)"/>
      </g>
     </g>
    </g>
    <g id="ytick_9">
     <g id="line2d_14">
      <g>
       <use xlink:href="#m12ac79c7dd" x="129.71" y="292.576923" style="stroke: #000000; stroke-width: 0.8"/>
      </g>
     </g>
     <g id="text_15">
      <!-- review_count -->
      <g transform="translate(56.430312 296.376142) scale(0.1 -0.1)">
       <defs>
        <path id="DejaVuSans-77" d="M 269 3500 
L 844 3500 
L 1563 769 
L 2278 3500 
L 2956 3500 
L 3675 769 
L 4391 3500 
L 4966 3500 
L 4050 0 
L 3372 0 
L 2619 2869 
L 1863 0 
L 1184 0 
L 269 3500 
z
" transform="scale(0.015625)"/>
       </defs>
       <use xlink:href="#DejaVuSans-72"/>
       <use xlink:href="#DejaVuSans-65" transform="translate(38.863281 0)"/>
       <use xlink:href="#DejaVuSans-76" transform="translate(100.386719 0)"/>
       <use xlink:href="#DejaVuSans-69" transform="translate(159.566406 0)"/>
       <use xlink:href="#DejaVuSans-65" transform="translate(187.349609 0)"/>
       <use xlink:href="#DejaVuSans-77" transform="translate(248.873047 0)"/>
       <use xlink:href="#DejaVuSans-5f" transform="translate(330.660156 0)"/>
       <use xlink:href="#DejaVuSans-63" transform="translate(380.660156 0)"/>
       <use xlink:href="#DejaVuSans-6f" transform="translate(435.640625 0)"/>
       <use xlink:href="#DejaVuSans-75" transform="translate(496.822266 0)"/>
       <use xlink:href="#DejaVuSans-6e" transform="translate(560.201172 0)"/>
       <use xlink:href="#DejaVuSans-74" transform="translate(623.580078 0)"/>
      </g>
     </g>
    </g>
    <g id="ytick_10">
     <g id="line2d_15">
      <g>
       <use xlink:href="#m12ac79c7dd" x="129.71" y="323.835385" style="stroke: #000000; stroke-width: 0.8"/>
      </g>
     </g>
     <g id="text_16">
      <!-- title -->
      <g transform="translate(103.16 327.634603) scale(0.1 -0.1)">
       <use xlink:href="#DejaVuSans-74"/>
       <use xlink:href="#DejaVuSans-69" transform="translate(39.208984 0)"/>
       <use xlink:href="#DejaVuSans-74" transform="translate(66.992188 0)"/>
       <use xlink:href="#DejaVuSans-6c" transform="translate(106.201172 0)"/>
       <use xlink:href="#DejaVuSans-65" transform="translate(133.984375 0)"/>
      </g>
     </g>
    </g>
    <g id="ytick_11">
     <g id="line2d_16">
      <g>
       <use xlink:href="#m12ac79c7dd" x="129.71" y="355.093846" style="stroke: #000000; stroke-width: 0.8"/>
      </g>
     </g>
     <g id="text_17">
      <!-- augmentation_type -->
      <g transform="translate(25.120937 358.893065) scale(0.1 -0.1)">
       <use xlink:href="#DejaVuSans-61"/>
       <use xlink:href="#DejaVuSans-75" transform="translate(61.279297 0)"/>
       <use xlink:href="#DejaVuSans-67" transform="translate(124.658203 0)"/>
       <use xlink:href="#DejaVuSans-6d" transform="translate(188.134766 0)"/>
       <use xlink:href="#DejaVuSans-65" transform="translate(285.546875 0)"/>
       <use xlink:href="#DejaVuSans-6e" transform="translate(347.070312 0)"/>
       <use xlink:href="#DejaVuSans-74" transform="translate(410.449219 0)"/>
       <use xlink:href="#DejaVuSans-61" transform="translate(449.658203 0)"/>
       <use xlink:href="#DejaVuSans-74" transform="translate(510.9375 0)"/>
       <use xlink:href="#DejaVuSans-69" transform="translate(550.146484 0)"/>
       <use xlink:href="#DejaVuSans-6f" transform="translate(577.929688 0)"/>
       <use xlink:href="#DejaVuSans-6e" transform="translate(639.111328 0)"/>
       <use xlink:href="#DejaVuSans-5f" transform="translate(702.490234 0)"/>
       <use xlink:href="#DejaVuSans-74" transform="translate(752.490234 0)"/>
       <use xlink:href="#DejaVuSans-79" transform="translate(791.699219 0)"/>
       <use xlink:href="#DejaVuSans-70" transform="translate(850.878906 0)"/>
       <use xlink:href="#DejaVuSans-65" transform="translate(914.355469 0)"/>
      </g>
     </g>
    </g>
    <g id="ytick_12">
     <g id="line2d_17">
      <g>
       <use xlink:href="#m12ac79c7dd" x="129.71" y="386.352308" style="stroke: #000000; stroke-width: 0.8"/>
      </g>
     </g>
     <g id="text_18">
      <!-- overall -->
      <g transform="translate(88.724063 390.151526) scale(0.1 -0.1)">
       <use xlink:href="#DejaVuSans-6f"/>
       <use xlink:href="#DejaVuSans-76" transform="translate(61.181641 0)"/>
       <use xlink:href="#DejaVuSans-65" transform="translate(120.361328 0)"/>
       <use xlink:href="#DejaVuSans-72" transform="translate(181.884766 0)"/>
       <use xlink:href="#DejaVuSans-61" transform="translate(222.998047 0)"/>
       <use xlink:href="#DejaVuSans-6c" transform="translate(284.277344 0)"/>
       <use xlink:href="#DejaVuSans-6c" transform="translate(312.060547 0)"/>
      </g>
     </g>
    </g>
    <g id="ytick_13">
     <g id="line2d_18">
      <g>
       <use xlink:href="#m12ac79c7dd" x="129.71" y="417.610769" style="stroke: #000000; stroke-width: 0.8"/>
      </g>
     </g>
     <g id="text_19">
      <!-- reviewText -->
      <g transform="translate(69.417812 421.409988) scale(0.1 -0.1)">
       <defs>
        <path id="DejaVuSans-54" d="M -19 4666 
L 3928 4666 
L 3928 4134 
L 2272 4134 
L 2272 0 
L 1638 0 
L 1638 4134 
L -19 4134 
L -19 4666 
z
" transform="scale(0.015625)"/>
        <path id="DejaVuSans-78" d="M 3513 3500 
L 2247 1797 
L 3578 0 
L 2900 0 
L 1881 1375 
L 863 0 
L 184 0 
L 1544 1831 
L 300 3500 
L 978 3500 
L 1906 2253 
L 2834 3500 
L 3513 3500 
z
" transform="scale(0.015625)"/>
       </defs>
       <use xlink:href="#DejaVuSans-72"/>
       <use xlink:href="#DejaVuSans-65" transform="translate(38.863281 0)"/>
       <use xlink:href="#DejaVuSans-76" transform="translate(100.386719 0)"/>
       <use xlink:href="#DejaVuSans-69" transform="translate(159.566406 0)"/>
       <use xlink:href="#DejaVuSans-65" transform="translate(187.349609 0)"/>
       <use xlink:href="#DejaVuSans-77" transform="translate(248.873047 0)"/>
       <use xlink:href="#DejaVuSans-54" transform="translate(330.660156 0)"/>
       <use xlink:href="#DejaVuSans-65" transform="translate(374.744141 0)"/>
       <use xlink:href="#DejaVuSans-78" transform="translate(434.517578 0)"/>
       <use xlink:href="#DejaVuSans-74" transform="translate(493.697266 0)"/>
      </g>
     </g>
    </g>
    <g id="text_20">
     <!-- Column -->
     <g transform="translate(19.04125 249.207656) rotate(-90) scale(0.1 -0.1)">
      <defs>
       <path id="DejaVuSans-43" d="M 4122 4306 
L 4122 3641 
Q 3803 3938 3442 4084 
Q 3081 4231 2675 4231 
Q 1875 4231 1450 3742 
Q 1025 3253 1025 2328 
Q 1025 1406 1450 917 
Q 1875 428 2675 428 
Q 3081 428 3442 575 
Q 3803 722 4122 1019 
L 4122 359 
Q 3791 134 3420 21 
Q 3050 -91 2638 -91 
Q 1578 -91 968 557 
Q 359 1206 359 2328 
Q 359 3453 968 4101 
Q 1578 4750 2638 4750 
Q 3056 4750 3426 4639 
Q 3797 4528 4122 4306 
z
" transform="scale(0.015625)"/>
      </defs>
      <use xlink:href="#DejaVuSans-43"/>
      <use xlink:href="#DejaVuSans-6f" transform="translate(69.824219 0)"/>
      <use xlink:href="#DejaVuSans-6c" transform="translate(131.005859 0)"/>
      <use xlink:href="#DejaVuSans-75" transform="translate(158.789062 0)"/>
      <use xlink:href="#DejaVuSans-6d" transform="translate(222.167969 0)"/>
      <use xlink:href="#DejaVuSans-6e" transform="translate(319.580078 0)"/>
     </g>
    </g>
   </g>
   <g id="line2d_19">
    <path clip-path="url(#p05cbda2933)" style="fill: none; stroke: #424242; stroke-width: 2.25; stroke-linecap: square"/>
   </g>
   <g id="line2d_20">
    <path clip-path="url(#p05cbda2933)" style="fill: none; stroke: #424242; stroke-width: 2.25; stroke-linecap: square"/>
   </g>
   <g id="line2d_21">
    <path clip-path="url(#p05cbda2933)" style="fill: none; stroke: #424242; stroke-width: 2.25; stroke-linecap: square"/>
   </g>
   <g id="line2d_22">
    <path clip-path="url(#p05cbda2933)" style="fill: none; stroke: #424242; stroke-width: 2.25; stroke-linecap: square"/>
   </g>
   <g id="line2d_23">
    <path clip-path="url(#p05cbda2933)" style="fill: none; stroke: #424242; stroke-width: 2.25; stroke-linecap: square"/>
   </g>
   <g id="line2d_24">
    <path clip-path="url(#p05cbda2933)" style="fill: none; stroke: #424242; stroke-width: 2.25; stroke-linecap: square"/>
   </g>
   <g id="line2d_25">
    <path clip-path="url(#p05cbda2933)" style="fill: none; stroke: #424242; stroke-width: 2.25; stroke-linecap: square"/>
   </g>
   <g id="line2d_26">
    <path clip-path="url(#p05cbda2933)" style="fill: none; stroke: #424242; stroke-width: 2.25; stroke-linecap: square"/>
   </g>
   <g id="line2d_27">
    <path clip-path="url(#p05cbda2933)" style="fill: none; stroke: #424242; stroke-width: 2.25; stroke-linecap: square"/>
   </g>
   <g id="line2d_28">
    <path clip-path="url(#p05cbda2933)" style="fill: none; stroke: #424242; stroke-width: 2.25; stroke-linecap: square"/>
   </g>
   <g id="line2d_29">
    <path clip-path="url(#p05cbda2933)" style="fill: none; stroke: #424242; stroke-width: 2.25; stroke-linecap: square"/>
   </g>
   <g id="line2d_30">
    <path clip-path="url(#p05cbda2933)" style="fill: none; stroke: #424242; stroke-width: 2.25; stroke-linecap: square"/>
   </g>
   <g id="line2d_31">
    <path clip-path="url(#p05cbda2933)" style="fill: none; stroke: #424242; stroke-width: 2.25; stroke-linecap: square"/>
   </g>
   <g id="line2d_32">
    <path clip-path="url(#p05cbda2933)" style="fill: none; stroke: #424242; stroke-width: 2.25; stroke-linecap: square"/>
   </g>
   <g id="line2d_33">
    <path clip-path="url(#p05cbda2933)" style="fill: none; stroke: #424242; stroke-width: 2.25; stroke-linecap: square"/>
   </g>
   <g id="line2d_34">
    <path clip-path="url(#p05cbda2933)" style="fill: none; stroke: #424242; stroke-width: 2.25; stroke-linecap: square"/>
   </g>
   <g id="line2d_35">
    <path clip-path="url(#p05cbda2933)" style="fill: none; stroke: #424242; stroke-width: 2.25; stroke-linecap: square"/>
   </g>
   <g id="line2d_36">
    <path clip-path="url(#p05cbda2933)" style="fill: none; stroke: #424242; stroke-width: 2.25; stroke-linecap: square"/>
   </g>
   <g id="line2d_37">
    <path clip-path="url(#p05cbda2933)" style="fill: none; stroke: #424242; stroke-width: 2.25; stroke-linecap: square"/>
   </g>
   <g id="line2d_38">
    <path clip-path="url(#p05cbda2933)" style="fill: none; stroke: #424242; stroke-width: 2.25; stroke-linecap: square"/>
   </g>
   <g id="line2d_39">
    <path clip-path="url(#p05cbda2933)" style="fill: none; stroke: #424242; stroke-width: 2.25; stroke-linecap: square"/>
   </g>
   <g id="line2d_40">
    <path clip-path="url(#p05cbda2933)" style="fill: none; stroke: #424242; stroke-width: 2.25; stroke-linecap: square"/>
   </g>
   <g id="line2d_41">
    <path clip-path="url(#p05cbda2933)" style="fill: none; stroke: #424242; stroke-width: 2.25; stroke-linecap: square"/>
   </g>
   <g id="line2d_42">
    <path clip-path="url(#p05cbda2933)" style="fill: none; stroke: #424242; stroke-width: 2.25; stroke-linecap: square"/>
   </g>
   <g id="line2d_43">
    <path clip-path="url(#p05cbda2933)" style="fill: none; stroke: #424242; stroke-width: 2.25; stroke-linecap: square"/>
   </g>
   <g id="patch_31">
    <path d="M 129.71 433.24 
L 129.71 26.88 
" style="fill: none; stroke: #000000; stroke-width: 0.8; stroke-linejoin: miter; stroke-linecap: square"/>
   </g>
   <g id="patch_32">
    <path d="M 709.2 433.24 
L 709.2 26.88 
" style="fill: none; stroke: #000000; stroke-width: 0.8; stroke-linejoin: miter; stroke-linecap: square"/>
   </g>
   <g id="patch_33">
    <path d="M 129.71 433.24 
L 709.2 433.24 
" style="fill: none; stroke: #000000; stroke-width: 0.8; stroke-linejoin: miter; stroke-linecap: square"/>
   </g>
   <g id="patch_34">
    <path d="M 129.71 26.88 
L 709.2 26.88 
" style="fill: none; stroke: #000000; stroke-width: 0.8; stroke-linejoin: miter; stroke-linecap: square"/>
   </g>
   <g id="text_21">
    <!-- Anomaly counts per column -->
    <g transform="translate(335.309688 20.88) scale(0.12 -0.12)">
     <use xlink:href="#DejaVuSans-41"/>
     <use xlink:href="#DejaVuSans-6e" transform="translate(68.408203 0)"/>
     <use xlink:href="#DejaVuSans-6f" transform="translate(131.787109 0)"/>
     <use xlink:href="#DejaVuSans-6d" transform="translate(192.96875 0)"/>
     <use xlink:href="#DejaVuSans-61" transform="translate(290.380859 0)"/>
     <use xlink:href="#DejaVuSans-6c" transform="translate(351.660156 0)"/>
     <use xlink:href="#DejaVuSans-79" transform="translate(379.443359 0)"/>
     <use xlink:href="#DejaVuSans-20" transform="translate(438.623047 0)"/>
     <use xlink:href="#DejaVuSans-63" transform="translate(470.410156 0)"/>
     <use xlink:href="#DejaVuSans-6f" transform="translate(525.390625 0)"/>
     <use xlink:href="#DejaVuSans-75" transform="translate(586.572266 0)"/>
     <use xlink:href="#DejaVuSans-6e" transform="translate(649.951172 0)"/>
     <use xlink:href="#DejaVuSans-74" transform="translate(713.330078 0)"/>
     <use xlink:href="#DejaVuSans-73" transform="translate(752.539062 0)"/>
     <use xlink:href="#DejaVuSans-20" transform="translate(804.638672 0)"/>
     <use xlink:href="#DejaVuSans-70" transform="translate(836.425781 0)"/>
     <use xlink:href="#DejaVuSans-65" transform="translate(899.902344 0)"/>
     <use xlink:href="#DejaVuSans-72" transform="translate(961.425781 0)"/>
     <use xlink:href="#DejaVuSans-20" transform="translate(1002.539062 0)"/>
     <use xlink:href="#DejaVuSans-63" transform="translate(1034.326172 0)"/>
     <use xlink:href="#DejaVuSans-6f" transform="translate(1089.306641 0)"/>
     <use xlink:href="#DejaVuSans-6c" transform="translate(1150.488281 0)"/>
     <use xlink:href="#DejaVuSans-75" transform="translate(1178.271484 0)"/>
     <use xlink:href="#DejaVuSans-6d" transform="translate(1241.650391 0)"/>
     <use xlink:href="#DejaVuSans-6e" transform="translate(1339.0625 0)"/>
    </g>
   </g>
   <g id="legend_1">
    <g id="patch_35">
     <path d="M 569.45625 94.426875 
L 702.2 94.426875 
Q 704.2 94.426875 704.2 92.426875 
L 704.2 33.88 
Q 704.2 31.88 702.2 31.88 
L 569.45625 31.88 
Q 567.45625 31.88 567.45625 33.88 
L 567.45625 92.426875 
Q 567.45625 94.426875 569.45625 94.426875 
z
" style="fill: #ffffff; opacity: 0.8; stroke: #cccccc; stroke-linejoin: miter"/>
    </g>
    <g id="text_22">
     <!-- dataset -->
     <g transform="translate(616.924219 43.478437) scale(0.1 -0.1)">
      <use xlink:href="#DejaVuSans-64"/>
      <use xlink:href="#DejaVuSans-61" transform="translate(63.476562 0)"/>
      <use xlink:href="#DejaVuSans-74" transform="translate(124.755859 0)"/>
      <use xlink:href="#DejaVuSans-61" transform="translate(163.964844 0)"/>
      <use xlink:href="#DejaVuSans-73" transform="translate(225.244141 0)"/>
      <use xlink:href="#DejaVuSans-65" transform="translate(277.34375 0)"/>
      <use xlink:href="#DejaVuSans-74" transform="translate(338.867188 0)"/>
     </g>
    </g>
    <g id="patch_36">
     <path d="M 571.45625 58.156562 
L 591.45625 58.156562 
L 591.45625 51.156562 
L 571.45625 51.156562 
z
" style="fill: #72b6a1"/>
    </g>
    <g id="text_23">
     <!-- products_clean -->
     <g transform="translate(599.45625 58.156562) scale(0.1 -0.1)">
      <use xlink:href="#DejaVuSans-70"/>
      <use xlink:href="#DejaVuSans-72" transform="translate(63.476562 0)"/>
      <use xlink:href="#DejaVuSans-6f" transform="translate(102.339844 0)"/>
      <use xlink:href="#DejaVuSans-64" transform="translate(163.521484 0)"/>
      <use xlink:href="#DejaVuSans-75" transform="translate(226.998047 0)"/>
      <use xlink:href="#DejaVuSans-63" transform="translate(290.376953 0)"/>
      <use xlink:href="#DejaVuSans-74" transform="translate(345.357422 0)"/>
      <use xlink:href="#DejaVuSans-73" transform="translate(384.566406 0)"/>
      <use xlink:href="#DejaVuSans-5f" transform="translate(436.666016 0)"/>
      <use xlink:href="#DejaVuSans-63" transform="translate(486.666016 0)"/>
      <use xlink:href="#DejaVuSans-6c" transform="translate(541.646484 0)"/>
      <use xlink:href="#DejaVuSans-65" transform="translate(569.429688 0)"/>
      <use xlink:href="#DejaVuSans-61" transform="translate(630.953125 0)"/>
      <use xlink:href="#DejaVuSans-6e" transform="translate(692.232422 0)"/>
     </g>
    </g>
    <g id="patch_37">
     <path d="M 571.45625 73.112812 
L 591.45625 73.112812 
L 591.45625 66.112812 
L 571.45625 66.112812 
z
" style="fill: #e99675"/>
    </g>
    <g id="text_24">
     <!-- reviews_augmented -->
     <g transform="translate(599.45625 73.112812) scale(0.1 -0.1)">
      <use xlink:href="#DejaVuSans-72"/>
      <use xlink:href="#DejaVuSans-65" transform="translate(38.863281 0)"/>
      <use xlink:href="#DejaVuSans-76" transform="translate(100.386719 0)"/>
      <use xlink:href="#DejaVuSans-69" transform="translate(159.566406 0)"/>
      <use xlink:href="#DejaVuSans-65" transform="translate(187.349609 0)"/>
      <use xlink:href="#DejaVuSans-77" transform="translate(248.873047 0)"/>
      <use xlink:href="#DejaVuSans-73" transform="translate(330.660156 0)"/>
      <use xlink:href="#DejaVuSans-5f" transform="translate(382.759766 0)"/>
      <use xlink:href="#DejaVuSans-61" transform="translate(432.759766 0)"/>
      <use xlink:href="#DejaVuSans-75" transform="translate(494.039062 0)"/>
      <use xlink:href="#DejaVuSans-67" transform="translate(557.417969 0)"/>
      <use xlink:href="#DejaVuSans-6d" transform="translate(620.894531 0)"/>
      <use xlink:href="#DejaVuSans-65" transform="translate(718.306641 0)"/>
      <use xlink:href="#DejaVuSans-6e" transform="translate(779.830078 0)"/>
      <use xlink:href="#DejaVuSans-74" transform="translate(843.208984 0)"/>
      <use xlink:href="#DejaVuSans-65" transform="translate(882.417969 0)"/>
      <use xlink:href="#DejaVuSans-64" transform="translate(943.941406 0)"/>
     </g>
    </g>
    <g id="patch_38">
     <path d="M 571.45625 88.069062 
L 591.45625 88.069062 
L 591.45625 81.069062 
L 571.45625 81.069062 
z
" style="fill: #95a3c3"/>
    </g>
    <g id="text_25">
     <!-- reviews_clean -->
     <g transform="translate(599.45625 88.069062) scale(0.1 -0.1)">
      <use xlink:href="#DejaVuSans-72"/>
      <use xlink:href="#DejaVuSans-65" transform="translate(38.863281 0)"/>
      <use xlink:href="#DejaVuSans-76" transform="translate(100.386719 0)"/>
      <use xlink:href="#DejaVuSans-69" transform="translate(159.566406 0)"/>
      <use xlink:href="#DejaVuSans-65" transform="translate(187.349609 0)"/>
      <use xlink:href="#DejaVuSans-77" transform="translate(248.873047 0)"/>
      <use xlink:href="#DejaVuSans-73" transform="translate(330.660156 0)"/>
      <use xlink:href="#DejaVuSans-5f" transform="translate(382.759766 0)"/>
      <use xlink:href="#DejaVuSans-63" transform="translate(432.759766 0)"/>
      <use xlink:href="#DejaVuSans-6c" transform="translate(487.740234 0)"/>
      <use xlink:href="#DejaVuSans-65" transform="translate(515.523438 0)"/>
      <use xlink:href="#DejaVuSans-61" transform="translate(577.046875 0)"/>
      <use xlink:href="#DejaVuSans-6e" transform="translate(638.326172 0)"/>
     </g>
    </g>
   </g>
  </g>
 </g>
 <defs>
  <clipPath id="p05cbda2933">
   <rect x="129.71" y="26.88" width="579.49" height="406.36"/>
  </clipPath>
 </defs>
</svg>
